# xmcd
#
# Track frame offsets:
#	150
#	16388
#	35471
#	52511
#	75394
#	98239
#	118456
#	141252
#	169925
#	181468
#	203965
#	217283
#	241583
#	256262
#
# Disc length: 3626 seconds
#
# Revision: 0
# Processed by: cddbd v1.5.1PL0 Copyright (c) Steve Scherf et al.
# Submitted via: EasyCDDAExtractor 8.2.2.1
#
DISCID=c00e280e
DTITLE=Various Artist - Su nombre es el son
DYEAR=2003
DGENRE=Latin
TTITLE0=Conjunto Bolero - Mulence y yo
TTITLE1=Chapottín - Congrí con chicharrones
TTITLE2=Conjunto Bolero - A Cuba le tocó
TTITLE3=Laitoy las estrellas Chapottín - Que nos dejen solitos
TTITLE4=Son 14 - Yo siempre he sido el son
TTITLE5=Conjunto Roberto Faz - Mi clientela
TTITLE6=Conjunto Casino - A comer rabo encendido
TTITLE7=Adalberto - El regreso de María
TTITLE8=Caney - El kilo no tiene vuelto
TTITLE9=Conjunto ROberto Faz - Y mañana me caso contigo
TTITLE10=A. Rodríguez - La fonda de Bienvenido
TTITLE11=Conjunto Rumba Habana - Cuando suena el quinto
TTITLE12=Caney - Como la Habana no hay
TTITLE13=Julio Cepero-Otlanta-Pérez - Sonando a Cuba
EXTD=
EXTT0=
EXTT1=
EXTT2=
EXTT3=
EXTT4=
EXTT5=
EXTT6=
EXTT7=
EXTT8=
EXTT9=
EXTT10=
EXTT11=
EXTT12=
EXTT13=
PLAYORDER=
